<svg width="1559" height="308" viewBox="0 0 1559 308" fill="none" xmlns="http://www.w3.org/2000/svg">
<g style="mix-blend-mode:difference">
<path d="M1558.73 68.64H1519.13V308H1439.93V68.64H1400.33V0H1558.73V68.64Z" fill="white"/>
<path d="M1313.3 0C1339.7 0 1360.09 6.74666 1374.46 20.24C1388.84 33.44 1396.02 54.12 1396.02 82.28V84.48C1396.02 97.3867 1394.56 108.68 1391.62 118.36C1388.69 127.747 1385.02 135.667 1380.62 142.12C1376.22 148.573 1371.38 153.413 1366.1 156.64C1360.82 159.573 1355.84 161.04 1351.14 161.04V166.32C1355.84 166.32 1360.82 168.08 1366.1 171.6C1371.38 175.12 1376.22 180.107 1380.62 186.56C1385.02 193.013 1388.69 200.933 1391.62 210.32C1394.56 219.707 1396.02 230.267 1396.02 242V245.52C1396.02 257.253 1396.17 268.253 1396.46 278.52C1397.05 288.787 1398.37 298.613 1400.42 308H1321.22C1319.17 298.32 1317.85 288.347 1317.26 278.08C1316.97 267.813 1316.82 256.667 1316.82 244.64V205.04C1316.82 201.813 1316.68 199.907 1316.38 199.32C1316.09 198.44 1314.77 198 1312.42 198H1311.54V308H1232.34V0H1313.3ZM1311.54 129.36H1312.42C1314.77 129.36 1316.09 129.067 1316.38 128.48C1316.68 127.6 1316.82 125.547 1316.82 122.32V75.24C1316.82 72.3067 1316.68 70.5467 1316.38 69.96C1316.09 69.08 1314.77 68.64 1312.42 68.64H1311.54V129.36Z" fill="white"/>
<path d="M1209.05 0L1228.41 308H1149.21V244.64H1143.93V308H1064.73L1085.85 0H1209.05ZM1149.21 176V138.16H1143.93V176H1149.21Z" fill="white"/>
<path d="M1025.37 68.64V111.32H1060.57V179.96H1025.37V239.36H1060.57V308H946.172V0H1060.57V68.64H1025.37Z" fill="white"/>
<path d="M940.985 0V308H861.785V184.36H856.505V308H777.305V0H856.505V115.72H861.785V0H940.985Z" fill="white"/>
<path d="M736.622 68.64V111.32H771.822V179.96H736.622V239.36H771.822V308H657.422V0H771.822V68.64H736.622Z" fill="white"/>
<path d="M569.013 0V219.56H574.293V0H653.493L632.373 308H509.173L489.813 0H569.013Z" fill="white"/>
<path d="M479.875 0L499.235 308H420.035V244.64H414.755V308H335.555L356.675 0H479.875ZM420.035 176V138.16H414.755V176H420.035Z" fill="white"/>
<path d="M253.265 0C279.665 0 300.051 6.74666 314.425 20.24C328.798 33.44 335.985 54.12 335.985 82.28V84.48C335.985 97.3867 334.518 108.68 331.585 118.36C328.651 127.747 324.985 135.667 320.585 142.12C316.185 148.573 311.345 153.413 306.065 156.64C300.785 159.573 295.798 161.04 291.105 161.04V166.32C295.798 166.32 300.785 168.08 306.065 171.6C311.345 175.12 316.185 180.107 320.585 186.56C324.985 193.013 328.651 200.933 331.585 210.32C334.518 219.707 335.985 230.267 335.985 242V245.52C335.985 257.253 336.131 268.253 336.425 278.52C337.011 288.787 338.331 298.613 340.385 308H261.185C259.131 298.32 257.811 288.347 257.225 278.08C256.931 267.813 256.785 256.667 256.785 244.64V205.04C256.785 201.813 256.638 199.907 256.345 199.32C256.051 198.44 254.731 198 252.385 198H251.505V308H172.305V0H253.265ZM251.505 129.36H252.385C254.731 129.36 256.051 129.067 256.345 128.48C256.638 127.6 256.785 125.547 256.785 122.32V75.24C256.785 72.3067 256.638 70.5467 256.345 69.96C256.051 69.08 254.731 68.64 252.385 68.64H251.505V129.36Z" fill="white"/>
<path d="M80.96 0C107.36 0 127.747 6.60001 142.12 19.8C156.493 32.7067 163.68 51.3334 163.68 75.68V77.88C163.68 89.32 162.213 99.44 159.28 108.24C156.64 117.04 153.12 124.373 148.72 130.24C144.32 136.107 139.48 140.507 134.2 143.44C128.92 146.373 123.787 147.84 118.8 147.84V153.12C123.493 153.12 128.627 154.88 134.2 158.4C140.067 161.627 145.493 166.467 150.48 172.92C155.467 179.373 159.573 187.147 162.8 196.24C166.32 205.04 168.08 215.16 168.08 226.6V232.32C168.08 256.08 160.307 274.707 144.76 288.2C129.507 301.4 108.24 308 80.96 308H0V0H80.96ZM79.2 116.16H80.08C82.4267 116.16 83.7467 115.867 84.04 115.28C84.3333 114.4 84.48 112.347 84.48 109.12V75.68C84.48 72.4534 84.3333 70.5467 84.04 69.96C83.7467 69.08 82.4267 68.64 80.08 68.64H79.2V116.16ZM79.2 239.36H80.08C82.4267 239.36 83.7467 239.067 84.04 238.48C84.3333 237.6 84.48 235.547 84.48 232.32V191.84C84.48 188.613 84.3333 186.707 84.04 186.12C83.7467 185.24 82.4267 184.8 80.08 184.8H79.2V239.36Z" fill="white"/>
</g>
</svg>
