<svg width="72" height="51" viewBox="0 0 72 51" fill="none" xmlns="http://www.w3.org/2000/svg">
<path d="M68.0859 14.5312C67.5391 18.5156 67.2656 22.487 67.2656 26.4453C67.2656 32.0443 67.8125 37.6302 68.9062 43.2031C68.9323 43.4375 68.9453 43.6589 68.9453 43.8672C68.9453 44.5443 68.724 45.2083 68.2812 45.8594C67.8385 46.5104 67.1094 46.849 66.0938 46.875C65.1302 46.849 64.1667 46.8359 63.2031 46.8359C50.6771 46.8359 38.2552 48.099 25.9375 50.625C25.7292 50.651 25.5208 50.6641 25.3125 50.6641C24.401 50.6641 23.6719 50.3255 23.125 49.6484C22.5781 48.9974 22.3047 48.2812 22.3047 47.5C22.3047 47.3177 22.3438 46.9401 22.4219 46.3672C22.526 45.7682 23.1901 45.3125 24.4141 45C37.0182 42.4219 49.7656 41.1068 62.6562 41.0547C61.901 36.1589 61.5234 31.25 61.5234 26.3281C61.5234 24.9219 61.5495 23.5026 61.6016 22.0703C60.2734 24.1276 59.0104 26.237 57.8125 28.3984C56.7969 30.2734 55.7292 32.1094 54.6094 33.9062C53.4896 35.6771 52.1875 37.3438 50.7031 38.9062C50.1302 39.4531 49.4922 39.7266 48.7891 39.7266C48.6328 39.7266 48.2812 39.6875 47.7344 39.6094C47.2135 39.5312 46.6797 39.1016 46.1328 38.3203C44.2318 35.0911 42.6432 31.7057 41.3672 28.1641L40.8203 26.8359C40.7422 26.6536 40.6641 26.4583 40.5859 26.25C39.7526 24.1146 38.9062 21.9792 38.0469 19.8438C37.7083 21.1458 37.487 22.526 37.3828 23.9844L37.1484 26.6406L36.2109 37.6562C36.0286 38.9323 35.4167 39.8177 34.375 40.3125C33.9844 40.4948 33.6068 40.5859 33.2422 40.5859C32.5651 40.5859 31.901 40.2995 31.25 39.7266C26.4062 35.013 21.3932 30.4818 16.2109 26.1328C16.7057 26.9922 17.2135 27.8125 17.7344 28.5938C17.7865 28.6719 17.8255 28.75 17.8516 28.8281C19.5703 31.5365 21.276 34.2448 22.9688 36.9531L25.4688 40.8594C25.7812 41.4323 25.9375 41.9661 25.9375 42.4609C25.9375 42.9297 25.7161 43.4766 25.2734 44.1016C24.8307 44.7005 24.1016 45.0521 23.0859 45.1562C22.9557 45.1823 22.8385 45.1953 22.7344 45.1953C21.849 45.1953 21.0807 44.7396 20.4297 43.8281C19.5703 42.4479 18.6979 41.0677 17.8125 39.6875C15.8854 36.6927 13.9974 33.6849 12.1484 30.6641C10.8464 28.6068 9.72656 26.4844 8.78906 24.2969C7.8776 22.1094 7.30469 19.7917 7.07031 17.3438C7.07031 15.9375 7.65625 15.0651 8.82812 14.7266C9.19271 14.6224 9.54427 14.5703 9.88281 14.5703C10.638 14.5703 11.3542 14.8047 12.0312 15.2734C18.5417 20.3776 24.8307 25.7422 30.8984 31.3672C31.1328 28.3984 31.3932 25.4427 31.6797 22.5C31.888 20.3646 32.3438 18.3464 33.0469 16.4453C33.776 14.5443 34.9349 12.8385 36.5234 11.3281C37.2005 10.7552 37.8776 10.4688 38.5547 10.4688C38.7891 10.4688 39.2057 10.5729 39.8047 10.7812C40.4036 10.9635 40.9375 11.5755 41.4062 12.6172C42.0833 14.3099 42.7604 16.0156 43.4375 17.7344L46.2109 24.6875L46.6016 25.7031C47.3828 27.7083 48.2292 29.7005 49.1406 31.6797C50.651 29.4401 52.0182 27.1094 53.2422 24.6875L54.1016 23.125C55.2734 20.9375 56.5885 18.8672 58.0469 16.9141C59.5312 14.9609 61.25 13.2161 63.2031 11.6797C63.9583 11.1849 64.6745 10.9375 65.3516 10.9375C65.8203 10.9375 66.276 11.0547 66.7188 11.2891C67.6562 11.8359 68.125 12.7474 68.125 14.0234C68.125 14.1797 68.112 14.349 68.0859 14.5312ZM68.3984 6.21094C68.2682 6.41927 68.125 6.61458 67.9688 6.79688C68.151 6.61458 68.2943 6.41927 68.3984 6.21094ZM67.0703 7.03125H67.2656C67.4219 7.03125 67.5651 7.01823 67.6953 6.99219C67.487 7.01823 67.2786 7.03125 67.0703 7.03125ZM71.5625 4.41406C71.6927 4.85677 71.7578 5.29948 71.7578 5.74219C71.7578 6.3151 71.5885 6.99219 71.25 7.77344C70.9375 8.55469 70.3125 9.20573 69.375 9.72656C68.5677 10.1432 67.7604 10.3516 66.9531 10.3516C66.6406 10.3516 66.1328 10.2865 65.4297 10.1562C64.7526 10.026 64.0885 9.41406 63.4375 8.32031C62.9948 7.51302 62.7604 6.64062 62.7344 5.70312V5.58594C62.7344 4.49219 63.099 3.52865 63.8281 2.69531C64.1406 2.30469 64.5312 2.05729 65 1.95312C65.3125 1.64062 65.6901 1.44531 66.1328 1.36719C66.4974 1.28906 66.849 1.25 67.1875 1.25C67.9948 1.25 68.776 1.44531 69.5312 1.83594C70.5208 2.4349 71.1979 3.29427 71.5625 4.41406ZM39.9219 7.57812C39.0365 8.35938 38.0208 8.75 36.875 8.75C36.8229 8.75 36.4714 8.73698 35.8203 8.71094C35.1953 8.6849 34.4661 8.20312 33.6328 7.26562C32.8776 6.40625 32.5 5.44271 32.5 4.375C32.5 4.08854 32.526 3.78906 32.5781 3.47656C32.6823 3.1901 32.7865 2.92969 32.8906 2.69531C32.9427 2.48698 33.0208 2.29167 33.125 2.10938C33.8802 0.833333 35 0.130208 36.4844 0H36.6016C37.6953 0 38.6849 0.351562 39.5703 1.05469C40.6901 1.91406 41.276 3.0599 41.3281 4.49219C41.25 5.6901 40.7812 6.71875 39.9219 7.57812ZM7.61719 6.21094C8.5026 7.01823 8.94531 7.96875 8.94531 9.0625C8.94531 9.16667 8.91927 9.57031 8.86719 10.2734C8.84115 10.9505 8.32031 11.7057 7.30469 12.5391C6.41927 13.2161 5.46875 13.5547 4.45312 13.5547C4.40104 13.5547 4.10156 13.5547 3.55469 13.5547C3.00781 13.5286 2.30469 13.151 1.44531 12.4219C0.638021 11.6667 0.169271 10.7422 0.0390625 9.64844C0.0130208 9.4401 0 9.23177 0 9.02344C0 8.1901 0.208333 7.39583 0.625 6.64062C0.989583 6.06771 1.47135 5.66406 2.07031 5.42969C2.69531 5.0651 3.35938 4.86979 4.0625 4.84375C5.41667 4.84375 6.60156 5.29948 7.61719 6.21094Z" fill="#8585F9"/>
</svg>
