<svg width="63" height="40" viewBox="0 0 63 40" fill="none" xmlns="http://www.w3.org/2000/svg">
<path d="M62.6953 27.4609C62.9036 28.1901 63.0078 28.8932 63.0078 29.5703C63.0078 30.9245 62.4349 32.2526 61.2891 33.5547C60.1693 34.8307 58.5807 35.7682 56.5234 36.3672C54.4661 36.9401 52.3307 37.3698 50.1172 37.6562C47.9297 37.9427 45.7422 38.1771 43.5547 38.3594C42.8776 38.4375 42.1875 38.5026 41.4844 38.5547C36.1979 39.0755 30.8984 39.349 25.5859 39.375C24.3099 39.2969 23.4635 38.7891 23.0469 37.8516C22.8385 37.4089 22.7344 36.9531 22.7344 36.4844C22.7344 36.0156 22.8906 35.4297 23.2031 34.7266C23.5417 33.9974 24.3359 33.5938 25.5859 33.5156C30.2474 33.5156 34.9349 33.3333 39.6484 32.9688C44.388 32.6042 49.0625 31.9661 53.6719 31.0547C54.1927 30.9505 54.7917 30.7943 55.4688 30.5859C56.1719 30.3776 56.6667 30.0911 56.9531 29.7266C57.0312 29.6224 57.0703 29.5052 57.0703 29.375C57.0703 29.0625 56.8229 28.6979 56.3281 28.2812C55.2344 27.4479 53.9714 26.8099 52.5391 26.3672C51.1068 25.8984 49.6875 25.5078 48.2812 25.1953L46.9531 24.8828C41.5365 23.5547 36.0677 22.8906 30.5469 22.8906C28.2292 22.8906 25.9115 23.0078 23.5938 23.2422C19.7656 23.6328 15.9896 24.349 12.2656 25.3906C12.0573 25.4688 11.8359 25.5339 11.6016 25.5859C11.1849 25.6901 10.7682 25.8073 10.3516 25.9375C10.4297 25.9375 10.5208 25.9505 10.625 25.9766C11.1979 26.0807 11.7839 26.1849 12.3828 26.2891C17.0964 27.0182 21.8099 27.3828 26.5234 27.3828C30.0911 27.3828 33.6719 27.1745 37.2656 26.7578H37.3438C38.125 26.7578 38.7891 27.0703 39.3359 27.6953C39.8828 28.2943 40.1562 28.9583 40.1562 29.6875C40.1562 30.5469 39.8698 31.224 39.2969 31.7188C38.75 32.2135 38.0729 32.513 37.2656 32.6172C33.75 32.9818 30.2344 33.1641 26.7188 33.1641C24.375 33.1641 22.0312 33.0859 19.6875 32.9297C16.8229 32.7214 13.9714 32.3958 11.1328 31.9531C10.7422 31.875 10.3255 31.8099 9.88281 31.7578C8.71094 31.6536 7.53906 31.4453 6.36719 31.1328C5.19531 30.8203 4.21875 30.2474 3.4375 29.4141C2.70833 28.5547 2.34375 27.6172 2.34375 26.6016C2.34375 26.4714 2.36979 26.0807 2.42188 25.4297C2.47396 24.7786 2.91667 23.9974 3.75 23.0859C4.50521 22.3047 5.35156 21.7057 6.28906 21.2891C7.2526 20.8464 8.24219 20.4818 9.25781 20.1953C14.0495 18.763 18.9323 17.8255 23.9062 17.3828C26.1979 17.1745 28.4766 17.0703 30.7422 17.0703C38.3724 17.0703 45.8724 18.2552 53.2422 20.625C55.1693 21.1719 57.0443 21.9531 58.8672 22.9688C60.6901 23.9844 61.9661 25.4818 62.6953 27.4609ZM8.51562 17.5781C8.22917 17.6562 7.95573 17.6953 7.69531 17.6953C7.20052 17.6953 6.67969 17.526 6.13281 17.1875C5.61198 16.849 5.20833 16.3021 4.92188 15.5469C3.67188 12.2917 2.17448 9.16667 0.429688 6.17188C0.143229 5.59896 0 5.07812 0 4.60938C0 4.11458 0.221354 3.55469 0.664062 2.92969C1.10677 2.30469 1.84896 1.9401 2.89062 1.83594H3.16406C4.04948 1.83594 4.81771 2.30469 5.46875 3.24219C7.44792 6.67969 9.14062 10.2734 10.5469 14.0234C10.651 14.3099 10.7031 14.5833 10.7031 14.8438C10.7031 15.3125 10.5208 15.8333 10.1562 16.4062C9.79167 16.9792 9.24479 17.3698 8.51562 17.5781ZM56.9531 18.1641C56.3542 19.1276 55.625 19.6094 54.7656 19.6094C54.6615 19.6094 54.3359 19.5833 53.7891 19.5312C53.2422 19.4792 52.6693 19.0365 52.0703 18.2031C51.7318 17.7604 51.5625 17.2656 51.5625 16.7188C51.5625 16.25 51.6797 15.7552 51.9141 15.2344C52.4609 14.2188 52.9948 13.2031 53.5156 12.1875C54.5052 10.3906 55.4688 8.58073 56.4062 6.75781C57.0052 5.79427 57.7474 5.3125 58.6328 5.3125C58.737 5.3125 59.0495 5.33854 59.5703 5.39062C60.1172 5.44271 60.7031 5.88542 61.3281 6.71875C61.6406 7.16146 61.7969 7.65625 61.7969 8.20312C61.7969 8.67188 61.6797 9.16667 61.4453 9.6875C60.1953 12.0573 58.9323 14.4401 57.6562 16.8359L56.9531 18.1641ZM29.0625 12.0703C29.1146 10.9505 29.1406 9.84375 29.1406 8.75C29.1406 6.77083 29.0625 4.79167 28.9062 2.8125V2.69531C28.9062 1.52344 29.349 0.729167 30.2344 0.3125C30.6771 0.104167 31.1328 0 31.6016 0C32.0703 0 32.6693 0.15625 33.3984 0.46875C34.1276 0.78125 34.5703 1.5625 34.7266 2.8125C34.8828 4.79167 34.9609 6.77083 34.9609 8.75C34.9609 9.84375 34.9349 10.9505 34.8828 12.0703C34.7526 13.3203 34.2188 14.1536 33.2812 14.5703C32.8125 14.7786 32.3438 14.8828 31.875 14.8828C31.4062 14.8828 30.8203 14.7266 30.1172 14.4141C29.4141 14.1016 29.0625 13.3203 29.0625 12.0703Z" fill="#8585F9"/>
</svg>
