<svg width="54" height="40" viewBox="0 0 54 40" fill="none" xmlns="http://www.w3.org/2000/svg">
<path fill-rule="evenodd" clip-rule="evenodd" d="M0.843066 0.264966C0.277861 0.545243 -0.0361653 1.01624 0.00332685 1.52424L0.0322028 1.89653L1.35922 1.86185C3.54095 1.80495 7.12147 2.36784 8.98598 3.06093C10.4212 3.59436 11.9062 3.95994 11.6481 3.71615C11.3995 3.48139 7.16701 1.45372 6.18958 1.10112C2.96258 -0.062963 1.85383 -0.236341 0.843066 0.264966ZM50.309 0.197742C49.7933 0.342189 49.072 0.589279 47.0618 1.31013C46.5448 1.49563 42.2926 3.57298 42.1341 3.71753C41.941 3.89389 42.4321 3.78752 43.8844 3.33854C47.4934 2.22275 49.5322 1.85398 52.0484 1.86196L53.75 1.86738L53.7415 1.43883C53.7188 0.297408 52.0751 -0.296864 50.309 0.197742ZM26.0361 1.12228L25.7363 1.35863L26.3448 1.48074C26.7673 1.56551 27.1061 1.57083 27.453 1.49797C28.0831 1.36565 28.0878 1.36012 27.782 1.10495C27.4089 0.793609 26.4409 0.803289 26.0361 1.12228ZM25.2077 1.73996C24.3492 1.99779 23.8154 3.18559 24.3276 3.69881C25.0286 4.40104 26.838 3.20101 26.838 2.03385C26.838 1.63348 26.0409 1.48978 25.2077 1.73996ZM27.1238 1.78495C26.9105 1.99864 26.9162 1.94056 27.065 2.38592C27.5406 3.809 29.7044 4.52645 29.7044 3.261C29.7044 2.1116 27.8541 1.05325 27.1238 1.78495ZM1.25306 2.21318C1.16548 2.23594 0.914725 2.28392 0.695713 2.31976C0.476808 2.3555 0.297607 2.44315 0.297607 2.51441C0.297607 3.01338 3.22119 5.53321 5.54422 7.03639C6.17068 7.44165 6.14573 7.43994 6.70149 7.11542C8.36568 6.14386 11.9712 5.71755 14.7887 6.15939C16.7399 6.46541 16.6859 6.46062 16.597 6.3166C16.3379 5.89656 10.7402 3.81081 7.62276 2.97275C5.60049 2.42911 2.04959 2.00566 1.25306 2.21318ZM50.3528 2.2336C47.7336 2.45176 43.8729 3.51224 39.5493 5.20124C37.4592 6.01761 36.576 6.56093 37.64 6.37564C41.4959 5.70436 44.6205 5.90752 46.7964 6.97119C47.6841 7.40516 47.6514 7.41165 48.9454 6.54178C51.1603 5.05296 53.7384 2.70034 53.4604 2.42187C53.2696 2.23073 51.601 2.12958 50.3528 2.2336ZM11.0438 2.82639C11.0802 2.94201 12.8737 3.96664 15.691 5.48162C16.129 5.71712 16.7299 6.06898 17.0265 6.26342C18.5882 7.28773 21.9624 8.65083 22.9363 8.65083C23.3654 8.65083 23.2964 8.52893 22.6711 8.1826C21.8534 7.72969 21.1698 7.21711 20.0968 6.25246C19.5713 5.78009 19.0332 5.30165 18.9011 5.18922C18.769 5.07679 18.3629 4.89661 17.9987 4.78886C16.9638 4.48273 16.5433 4.35977 13.9925 3.61754C12.6787 3.23526 11.4684 2.87085 11.3027 2.80756C11.0687 2.71811 11.011 2.72236 11.0438 2.82639ZM26.629 3.06124C26.3764 3.47065 25.9344 3.77284 25.2987 3.97068C24.7024 4.15619 24.6869 4.18969 24.9541 4.71727C25.6125 6.01761 27.9831 6.08398 28.8289 4.82587C29.1267 4.38296 29.1084 4.02865 28.787 4.01238C28.3484 3.99015 27.5597 3.51798 27.2774 3.10858C26.9324 2.60833 26.9094 2.60663 26.629 3.06124ZM42.0722 2.93765C41.7219 3.04933 40.8859 3.29908 40.2144 3.49246C39.5429 3.68583 38.5756 3.96834 38.0646 4.12013C37.5538 4.27191 36.7177 4.51868 36.2068 4.66845C35.2346 4.95341 35.0652 5.04009 34.5202 5.53172C32.8698 7.02043 32.0594 7.65002 31.1111 8.17994C30.4778 8.53382 30.417 8.65083 30.8666 8.65083C31.7539 8.65083 35.0091 7.3357 36.7588 6.27044C38.1682 5.41227 38.6926 5.11647 40.2675 4.29148C41.2725 3.76497 42.665 3.01083 42.7468 2.94882C42.9654 2.78299 42.5769 2.7765 42.0722 2.93765ZM28.3757 5.58235C28.1412 5.7519 27.759 5.92071 27.5264 5.95762C26.9724 6.04526 26.9452 6.10451 26.9989 7.10734C27.0865 8.74539 27.1585 8.91025 27.9266 9.2318C29.1856 9.75885 29.5506 9.41869 29.4571 7.80532C29.338 5.74744 29.0281 5.11051 28.3757 5.58235ZM19.619 5.44993C19.619 5.503 19.8682 5.75424 20.1727 6.00835C20.4772 6.26246 20.8762 6.61496 21.0593 6.79185C21.4095 7.12999 22.9461 8.22536 23.0702 8.22536C23.11 8.22536 23.2851 8.32694 23.4592 8.45117C23.8747 8.74762 23.9443 8.64817 23.9881 7.6948L24.0247 6.89843L23.6001 6.69676C22.4288 6.14067 19.619 5.26059 19.619 5.44993ZM24.7616 5.72425C24.4847 6.3884 24.3878 7.09638 24.4189 8.2294L24.4494 9.34221L25.1456 9.32891C26.5076 9.30285 26.7267 9.01853 26.7618 7.23019L26.7849 6.05409L26.3167 5.97229C26.0592 5.9273 25.6744 5.76967 25.4617 5.62203C24.967 5.27846 24.9462 5.28155 24.7616 5.72425ZM32.8892 5.69074C29.465 6.91981 29.6673 6.7943 29.7569 7.63353C29.8736 8.72571 29.8464 8.7006 30.5113 8.33502C31.0914 8.01603 32.54 6.98193 32.9413 6.60039C33.0586 6.48881 33.3815 6.20151 33.6589 5.96198C34.4856 5.24794 34.3026 5.18348 32.8892 5.69074ZM10.9138 6.32352C9.34555 6.48147 7.50758 7.00618 6.89152 7.47175L6.6397 7.66215L7.23049 8.00071L7.82128 8.33938L8.65094 8.21919C12.0164 7.73182 15.272 8.13303 19.1413 9.51208C20.8278 10.1131 22.0807 10.1578 23.0807 9.6527C24.188 9.09342 24.147 8.86143 22.9307 8.80357C22.0973 8.76389 21.59 8.61477 19.4067 7.76809C19.0272 7.62087 18.4634 7.40357 18.1539 7.28507C15.9268 6.43276 13.2971 6.08345 10.9138 6.32352ZM39.7367 6.31384C38.5956 6.41967 36.6794 6.87843 35.5574 7.31422C35.0533 7.50993 34.0036 7.91838 33.2247 8.22185C32.0043 8.6972 31.6827 8.77964 30.8988 8.81771C29.8974 8.86643 29.8187 8.896 29.984 9.16117C30.4487 9.90627 32.5953 10.2642 33.7576 9.79033C37.438 8.28992 41.7565 7.65502 44.8246 8.16345L45.8783 8.33811L46.45 8.04836C47.219 7.65842 47.2194 7.643 46.4637 7.26082C44.8859 6.46286 42.2016 6.08494 39.7367 6.31384ZM10.2237 8.34342C8.261 8.52361 8.36473 8.67337 10.8361 9.22744C12.5969 9.62217 16.7702 10.0132 19.4332 10.033C19.7437 10.0353 19.3926 9.80023 18.7963 9.60653C15.2693 8.46064 12.8421 8.10293 10.2237 8.34342ZM39.312 8.4867C36.8725 8.9578 33.4144 10.0459 34.402 10.0317C38.4786 9.97297 43.0795 9.40071 44.7498 8.74475L45.0447 8.62891L44.7793 8.5168C44.3588 8.33906 40.1952 8.31609 39.312 8.4867ZM26.5417 9.19766C26.3497 9.32094 25.8531 9.48655 25.4383 9.56569C24.5291 9.73928 24.5605 9.71226 24.7478 10.1616C25.4778 11.9119 28.1998 11.9503 29.0795 10.2226C29.3398 9.7113 29.3616 9.73598 28.5251 9.59398C28.1519 9.53059 27.6375 9.36423 27.382 9.22435C27.1265 9.08438 26.9115 8.97078 26.9043 8.97173C26.897 8.97269 26.7339 9.07438 26.5417 9.19766ZM23.2285 10.2566C22.2325 10.4132 17.783 11.2259 17.3631 11.3279C16.5272 11.5309 17.0067 11.7074 19.2193 12.0108C21.6324 12.3419 25.133 11.1333 24.2689 10.2676C24.1274 10.1258 24.0645 10.1252 23.2285 10.2566ZM29.5717 10.2548C29.1366 10.5087 29.3369 10.9572 29.9963 11.2057C32.5835 12.1808 33.1614 12.2569 35.3202 11.9057C37.2323 11.5945 37.2381 11.4905 35.3632 11.1339C30.412 10.1922 29.8304 10.1039 29.5717 10.2548ZM23.6001 11.4273C23.1914 11.6057 22.0687 12.0558 21.1053 12.4278C17.1777 13.9439 16.2881 14.4521 14.4659 16.2206C13.0721 17.5735 11.7715 19.368 12.1612 19.4005C12.8508 19.4581 14.4347 19.537 15.0439 19.5442L15.8299 19.5534L16.0105 19.0216C16.7019 16.9854 18.1207 15.3272 20.593 13.6657C21.041 13.3646 21.442 13.1182 21.4843 13.1182C21.5265 13.1182 21.8049 12.9582 22.1028 12.7624C22.4008 12.5667 23.1054 12.1745 23.6685 11.8909C24.3388 11.5533 24.6739 11.3271 24.6391 11.2362C24.5635 11.0389 24.437 11.0621 23.6001 11.4273ZM29.1425 11.2377C29.1067 11.3311 29.4854 11.5808 30.2724 11.983C31.8856 12.8074 33.5585 13.8384 34.4286 14.5447C35.4942 15.4096 36.2134 16.1694 36.8036 17.0538C37.352 17.8755 37.5486 18.2893 37.8394 19.2343L37.9376 19.5534L39.2087 19.5246C41.9928 19.4614 41.9325 19.5008 41.1202 18.2777C39.5275 15.8794 37.2034 14.1896 33.5793 12.795C33.229 12.6602 32.1444 12.2231 31.1692 11.8236C29.2497 11.0373 29.2223 11.0294 29.1425 11.2377ZM24.2502 11.8317C23.9097 12.0709 23.786 12.2664 23.5332 12.9652C22.9985 14.4427 21.9996 16.3238 20.4719 18.7303C20.0256 19.4332 20.011 19.4246 21.2144 19.1653C24.1389 18.5349 25.6877 16.3203 25.0336 13.7043C24.8733 13.0632 24.8156 12.5934 24.8559 12.2539C24.9369 11.5685 24.7803 11.4594 24.2502 11.8317ZM13.9925 11.8316C12.6616 12.0417 9.76871 12.3086 6.93271 12.4829C5.9401 12.544 4.86521 12.6681 4.54407 12.7588C4.22293 12.8496 3.77122 12.97 3.5401 13.0264C0.741681 13.7107 -0.196045 16.1425 1.90543 17.2654L2.29238 17.4723L2.96704 17.2031C4.84674 16.4534 8.38659 15.22 10.5422 14.5639C10.8342 14.4749 11.5985 14.2383 12.2408 14.038C12.8831 13.8376 13.9102 13.5201 14.5233 13.3324C15.1364 13.1446 15.7641 12.9441 15.9182 12.887C16.0724 12.8298 16.731 12.6754 17.3818 12.544C18.8106 12.2553 18.8494 12.1609 17.6337 11.9313C16.1026 11.6422 15.3274 11.6209 13.9925 11.8316ZM25.6701 12.5484L25.67 13.4905L26.9599 13.4669L28.2497 13.4433L28.2265 12.5642C28.1987 11.5118 28.2704 11.5979 27.6006 11.8125C27.0548 11.9873 26.4506 11.9438 25.856 11.6866C25.687 11.6136 25.6702 11.6915 25.6701 12.5484ZM28.9289 12.1964C28.9692 12.588 28.9143 13.0736 28.7514 13.7653C28.1831 16.1786 29.591 18.4427 32.0399 19.0537C33.4659 19.4095 33.8513 19.3922 33.4948 18.9883C32.8403 18.2469 30.7877 14.4196 30.1846 12.8164C29.7192 11.5793 28.8195 11.135 28.9289 12.1964ZM37.5603 11.6997C35.2066 12.0694 34.7885 12.197 35.5029 12.3279C36.0502 12.4282 37.7126 12.8488 38.3655 13.0522C38.6525 13.1416 40.1295 13.5976 41.6476 14.0655C45.7268 15.3228 47.1736 15.8162 50.8836 17.2158C52.0628 17.6605 53.3404 16.5449 53.0631 15.3127C52.7055 13.7241 50.4158 12.7081 46.6703 12.4758C44.0859 12.3156 41.295 12.0588 39.6836 11.8331C38.2543 11.633 38.0624 11.6209 37.5603 11.6997ZM33.3666 12.3742C33.34 12.4173 33.9337 12.6771 34.6858 12.9517C37.7831 14.0821 40.2655 16.0461 41.9685 18.7135C42.2775 19.1975 42.3847 19.2875 42.6515 19.2875C43.5285 19.2875 48.7411 18.3597 50.3929 17.9095C50.9356 17.7617 50.9018 17.7156 49.9813 17.3492C47.9777 16.5514 42.3263 14.5889 37.8258 13.1277C37.0667 12.8814 36.1546 12.6843 35.0655 12.5315C34.4233 12.4414 33.7892 12.3515 33.6564 12.3318C33.5237 12.312 33.3932 12.3311 33.3666 12.3742ZM19.055 12.4412C19.0441 12.4514 18.8679 12.4866 18.6636 12.5195C16.9057 12.8022 14.9383 13.3934 10.2768 15.0395C9.43016 15.3384 8.33139 15.7194 7.83508 15.8862C6.36984 16.3784 5.19039 16.8038 4.17325 17.2071C3.64818 17.4153 3.15845 17.5856 3.08509 17.5856C2.79686 17.5856 2.97331 17.7943 3.34975 17.8987C4.4101 18.1926 7.88275 18.8651 9.66956 19.1226C11.2925 19.3564 11.4902 19.3457 11.6407 19.0149C12.691 16.705 16.116 13.9924 19.4863 12.801C20.0265 12.6101 20.4683 12.4328 20.4683 12.407C20.4683 12.3643 19.1016 12.3974 19.055 12.4412ZM21.7953 13.2278C18.9712 14.9753 16.8132 17.3948 16.3744 19.3057L16.3092 19.5899L17.8314 19.5416C19.7266 19.4814 19.4683 19.617 20.4045 18.1903C21.5486 16.4472 21.8727 15.8518 22.9342 13.5437C23.6065 12.0821 23.6345 12.0899 21.7953 13.2278ZM30.3414 12.407C30.3414 12.4253 30.4539 12.6765 30.5915 12.9654C30.7291 13.2542 31.0187 13.8861 31.2351 14.3696C31.9162 15.8911 33.8394 19.1046 34.2141 19.3472C34.3577 19.44 34.9297 19.4972 35.9441 19.5197L37.4597 19.5534L37.3907 19.2343C37.0902 17.8448 35.1865 15.4277 33.367 14.1253C32.0334 13.1709 30.3414 12.2099 30.3414 12.407ZM25.9712 13.7188C25.5719 13.7894 25.5589 14.1506 25.8785 16.2826C25.8905 16.3621 27.8968 16.2936 27.9471 16.2119C28.039 16.063 28.2536 13.8629 28.1832 13.7923C28.103 13.712 26.3405 13.6535 25.9712 13.7188ZM25.9447 16.72C25.9136 16.7706 25.9179 17.4362 25.9543 18.1995L26.0206 19.5871L26.2966 19.6235C26.4484 19.6434 26.8831 19.6359 27.2627 19.6066L27.9527 19.5534L27.9772 18.0909L28.0019 16.6283H27.0015C26.4514 16.6283 25.9758 16.6696 25.9447 16.72ZM26.0343 20.0665C26.0035 20.147 25.9925 20.5426 26.0101 20.9459L26.0418 21.679L26.9442 21.6785L27.8466 21.6782V20.8286V19.9789L26.9684 19.9495C26.3007 19.9273 26.0769 19.9553 26.0343 20.0665ZM25.9887 22.6871V23.4358H26.9422H27.8956L27.8711 22.7178L27.8466 21.9999L26.9176 21.9691L25.9887 21.9384V22.6871ZM25.9887 25.4151V27.0754L26.2807 26.9911C26.6401 26.8873 27.1019 26.881 27.5471 26.9737C27.9971 27.0674 28.0537 26.8023 27.9539 25.0689L27.8783 23.7549H26.9335H25.9887V25.4151ZM25.9887 28.482C25.9887 29.8703 25.9467 29.8089 26.9543 29.8935C27.8992 29.9728 27.8908 29.9858 27.8845 28.4637L27.8795 27.265H26.9341H25.9887V28.482ZM26.0454 30.2433C26.0289 30.2726 26.0385 30.5639 26.0669 30.8909L26.1184 31.4852L26.9028 31.4783L27.6873 31.4714L27.705 31.0169C27.7147 30.7669 27.7267 30.4786 27.7316 30.3763C27.74 30.1985 26.1419 30.0725 26.0454 30.2433ZM26.2387 31.7856C26.1322 31.8651 26.1127 32.0676 26.1618 32.5867L26.2274 33.2812L26.9308 33.2655L27.6342 33.2498L27.6342 32.472V31.6941L27.0078 31.6867C26.6632 31.6827 26.3171 31.7271 26.2387 31.7856ZM26.2012 34.8969L26.2013 36.1467L26.8912 36.1487L27.5812 36.1507V34.8989V33.647H26.8911H26.201L26.2012 34.8969ZM26.3271 36.4183C26.1101 36.5055 26.0881 36.5696 26.1379 36.97C26.1689 37.2192 26.2233 37.8354 26.259 38.3393C26.4317 40.7797 27.3731 40.4506 27.5835 37.8763C27.7121 36.3021 27.4303 35.975 26.3271 36.4183Z" fill="white"/>
</svg>
