<svg width="382" height="282" viewBox="0 0 382 282" fill="none" xmlns="http://www.w3.org/2000/svg">
<g style="mix-blend-mode:difference">
<path d="M382 33.8707H364.578V54.9313H382V88.802H364.578V118.113H382V151.984H325.38V0H382V33.8707Z" fill="white"/>
<path d="M242.424 0H281.623V108.343H284.236V0H323.435L312.982 151.984H252.006L242.424 0Z" fill="white"/>
<path d="M176.53 0H237.506L247.088 151.984H207.889V120.719H205.276V151.984H166.077L176.53 0ZM205.276 86.8479H207.889V68.1756H205.276V86.8479Z" fill="white"/>
<path d="M85.2792 0H125.349C151.264 0 166.29 13.0272 166.29 40.6014V41.687C166.29 67.09 153.441 79.4658 144.077 79.4658V82.0712C153.224 82.0712 166.29 96.184 166.29 119.416V121.153C166.29 132.66 166.508 142.648 168.468 151.984H129.269C127.309 142.431 127.091 132.443 127.091 120.719V101.178C127.091 98.1381 127.091 97.7039 124.913 97.7039H124.478V151.984H85.2792V0ZM124.478 33.8707V63.8332H124.913C127.091 63.8332 127.091 63.399 127.091 60.3593V37.1275C127.091 34.3049 127.091 33.8707 124.913 33.8707H124.478Z" fill="white"/>
<path d="M0 0H40.0698C65.9844 0 81.0106 13.4614 81.0106 37.3446V38.4302C81.0106 61.2278 68.3799 72.9522 58.798 72.9522V75.5576C67.9444 75.5576 83.1883 89.4533 83.1883 111.817V114.639C83.1883 138.088 66.8555 151.984 40.0698 151.984H0V0ZM39.1987 33.8707V57.3196H39.6342C41.8119 57.3196 41.8119 56.8854 41.8119 53.8457V37.3446C41.8119 34.3049 41.8119 33.8707 39.6342 33.8707H39.1987ZM39.1987 91.1903V118.113H39.6342C41.8119 118.113 41.8119 117.679 41.8119 114.639V94.6642C41.8119 91.6245 41.8119 91.1903 39.6342 91.1903H39.1987Z" fill="white"/>
</g>
<g style="mix-blend-mode:difference">
<path d="M381.211 199.001H349.469V185.287C349.469 183.353 349.116 182.474 348.411 182.474C347.705 182.474 347.353 183.353 347.353 185.287V195.133C347.353 200.231 347.705 201.11 361.284 208.671L366.045 211.308C378.037 217.989 381.211 226.077 381.211 246.647V248.933C381.211 269.856 369.043 281.635 347.882 281.635C326.896 281.635 315.61 270.207 315.61 248.933V237.681H347.353V251.395C347.353 253.329 347.705 254.208 348.411 254.208C349.116 254.208 349.469 253.329 349.469 251.57V241.197C349.469 236.098 349.116 235.395 336.948 228.538L331.305 225.373C318.961 218.516 315.61 209.726 315.61 189.155V187.572C315.61 166.298 327.073 155.046 347.882 155.046C369.043 155.046 381.211 166.826 381.211 187.572V199.001Z" fill="white"/>
<path d="M313.818 156.804V184.232H297.947V279.877H266.205V184.232H250.333V156.804H313.818Z" fill="white"/>
<path d="M183.007 156.804H215.454C236.439 156.804 248.607 167.353 248.607 189.682V190.561C248.607 211.132 238.203 221.154 230.62 221.154V223.264C238.026 223.264 248.607 234.692 248.607 253.504V254.911C248.607 264.229 248.784 272.317 250.371 279.877H218.628C217.041 272.141 216.865 264.053 216.865 254.559V238.736C216.865 236.274 216.865 235.922 215.102 235.922H214.749V279.877H183.007V156.804ZM214.749 184.232V208.495H215.102C216.865 208.495 216.865 208.143 216.865 205.682V186.869C216.865 184.583 216.865 184.232 215.102 184.232H214.749Z" fill="white"/>
<path d="M124.296 156.804H173.673L181.432 279.877H149.69V254.559H147.573V279.877H115.831L124.296 156.804ZM147.573 227.132H149.69V212.011H147.573V227.132Z" fill="white"/>
<path d="M114.163 184.232H100.055V201.286H114.163V228.714H100.055V252.449H114.163V279.877H68.3129V156.804H114.163V184.232Z" fill="white"/>
<path d="M34.4917 156.804H66.234V279.877H34.4917V230.472H32.3756V279.877H0.633301V156.804H32.3756V203.044H34.4917V156.804Z" fill="white"/>
</g>
</svg>
