<svg width="382" height="307" viewBox="0 0 382 307" fill="none" xmlns="http://www.w3.org/2000/svg">
<g style="mix-blend-mode:difference">
<path d="M382 33.8707H364.578V54.9313H382V88.802H364.578V118.113H382V151.984H325.38V0H382V33.8707Z" fill="white"/>
<path d="M242.424 0H281.623V108.343H284.236V0H323.435L312.982 151.984H252.006L242.424 0Z" fill="white"/>
<path d="M176.53 0H237.506L247.088 151.984H207.889V120.719H205.276V151.984H166.077L176.53 0ZM205.276 86.8479H207.889V68.1756H205.276V86.8479Z" fill="white"/>
<path d="M85.2792 0H125.349C151.264 0 166.29 13.0272 166.29 40.6014V41.687C166.29 67.09 153.441 79.4658 144.077 79.4658V82.0712C153.224 82.0712 166.29 96.184 166.29 119.416V121.153C166.29 132.66 166.508 142.648 168.468 151.984H129.269C127.309 142.431 127.091 132.443 127.091 120.719V101.178C127.091 98.1381 127.091 97.7039 124.913 97.7039H124.478V151.984H85.2792V0ZM124.478 33.8707V63.8332H124.913C127.091 63.8332 127.091 63.399 127.091 60.3593V37.1275C127.091 34.3049 127.091 33.8707 124.913 33.8707H124.478Z" fill="white"/>
<path d="M0 0H40.0698C65.9844 0 81.0106 13.4614 81.0106 37.3446V38.4302C81.0106 61.2278 68.3799 72.9522 58.798 72.9522V75.5576C67.9444 75.5576 83.1883 89.4533 83.1883 111.817V114.639C83.1883 138.088 66.8555 151.984 40.0698 151.984H0V0ZM39.1987 33.8707V57.3196H39.6342C41.8119 57.3196 41.8119 56.8854 41.8119 53.8457V37.3446C41.8119 34.3049 41.8119 33.8707 39.6342 33.8707H39.1987ZM39.1987 91.1903V118.113H39.6342C41.8119 118.113 41.8119 117.679 41.8119 114.639V94.6642C41.8119 91.6245 41.8119 91.1903 39.6342 91.1903H39.1987Z" fill="white"/>
</g>
<g style="mix-blend-mode:difference">
<path d="M382 156.804V190.203H362.674V306.671H324.021V190.203H304.695V156.804H382Z" fill="white"/>
<path d="M222.71 156.804H262.222C287.776 156.804 302.592 169.65 302.592 196.84V197.91C302.592 222.96 289.923 235.163 280.689 235.163V237.732C289.708 237.732 302.592 251.648 302.592 274.557V276.269C302.592 287.616 302.807 297.465 304.74 306.671H266.087C264.155 297.251 263.94 287.402 263.94 275.841V256.573C263.94 253.575 263.94 253.147 261.792 253.147H261.363V306.671H222.71V156.804ZM261.363 190.203V219.748H261.792C263.94 219.748 263.94 219.32 263.94 216.323V193.414C263.94 190.631 263.94 190.203 261.792 190.203H261.363Z" fill="white"/>
<path d="M151.218 156.804H211.344L220.793 306.671H182.14V275.841H179.563V306.671H140.91L151.218 156.804ZM179.563 242.442H182.14V224.03H179.563V242.442Z" fill="white"/>
<path d="M138.879 190.203H121.7V210.97H138.879V244.369H121.7V273.272H138.879V306.671H83.0471V156.804H138.879V190.203Z" fill="white"/>
<path d="M41.8629 156.804H80.5156V306.671H41.8629V246.51H39.286V306.671H0.633301V156.804H39.286V213.111H41.8629V156.804Z" fill="white"/>
</g>
</svg>
